<svg width="41" height="31" viewBox="0 0 41 31" fill="none" xmlns="http://www.w3.org/2000/svg">
<g clip-path="url(#clip0_1_111)">
<path d="M20.4994 24.4371C18.7958 24.4371 17.3951 25.7534 17.2247 27.4131V27.4322C17.2247 27.5276 17.2058 27.623 17.2058 27.7184C17.2247 29.5307 18.7012 30.9996 20.4994 30.9996C22.3166 30.9996 23.7741 29.5307 23.7931 27.7184C23.7741 25.9061 22.3166 24.4371 20.4994 24.4371Z" fill="#171FE5"/>
<path d="M35.0375 24.4371C33.8261 24.4371 32.766 25.1048 32.1982 26.0777C31.9332 26.5547 31.7817 27.1079 31.7817 27.6802C31.7817 29.5116 33.2582 30.9996 35.0754 30.9996C36.2111 30.9996 37.2143 30.4273 37.8011 29.5307C38.1229 29.0156 38.3311 28.4051 38.3311 27.7374C38.3501 25.9251 36.8736 24.4371 35.0375 24.4371Z" fill="#171FE5"/>
<path d="M20.5004 25.0477C19.4971 25.0477 18.6264 25.601 18.1721 26.4213C18.5696 26.1923 19.0239 26.0588 19.5161 26.0588C20.9736 26.0588 22.185 27.2607 22.204 28.7296C22.204 29.2065 22.0715 29.6453 21.8443 30.0268C22.6393 29.569 23.1883 28.7105 23.1883 27.7185C23.1693 26.2496 21.9579 25.0477 20.5004 25.0477Z" fill="url(#paint0_linear_1_111)"/>
<path d="M35.0375 25.0477C34.091 25.0477 33.2014 25.5628 32.7282 26.364C32.7282 26.3831 32.7092 26.3831 32.7092 26.4022C33.1067 26.1733 33.561 26.0397 34.0343 26.0397C35.5107 26.0397 36.7222 27.2607 36.7222 28.7487C36.7222 29.1874 36.6086 29.6262 36.4004 30.0268C36.76 29.817 37.0629 29.5499 37.3089 29.2065C37.5929 28.7677 37.7254 28.2717 37.7254 27.7567C37.7254 26.2687 36.5329 25.0477 35.0375 25.0477Z" fill="url(#paint1_linear_1_111)"/>
<path d="M38.3878 20.7937H19.7996L14.6888 6.54319C14.3102 5.49396 13.3259 4.80719 12.2281 4.80719H2.61219C1.17359 4.80719 0 5.97088 0 7.43981C0 8.90873 1.17359 10.0724 2.61219 10.0724H10.4109L15.5217 24.3229C15.711 24.857 16.0706 25.2958 16.5249 25.601C17.2821 24.1703 18.7964 23.1973 20.5189 23.1973C22.4118 23.1973 24.0397 24.3801 24.7211 26.0589H30.873C31.5355 24.3801 33.1634 23.1973 35.0752 23.1973C36.9303 23.1973 38.5203 24.3229 39.2207 25.9253C40.2618 25.582 41.0379 24.59 41.0379 23.4263C41 21.9764 39.8264 20.7937 38.3878 20.7937Z" fill="#171FE5"/>
<path d="M38.3881 18.2564C38.3881 18.2564 38.2556 18.3327 38.0095 18.4472C37.7635 18.5617 37.3849 18.7334 36.8927 18.9051C36.6467 19.0004 36.3627 19.0767 36.0599 19.1721C35.757 19.2484 35.4163 19.3438 35.0566 19.4011C34.3373 19.5537 33.4855 19.63 32.558 19.6109C31.6305 19.5918 30.5894 19.4583 29.5294 19.1531C28.4694 18.8478 27.3904 18.3709 26.3683 17.7223C25.3461 17.0927 24.3807 16.3106 23.5289 15.4331C22.6582 14.5746 21.8821 13.6207 21.1628 12.6669C20.4435 11.694 19.7999 10.721 19.1942 9.74813C18.8914 9.2712 18.5885 8.79428 18.3235 8.31736C18.0396 7.85951 17.7556 7.40167 17.4906 6.94382C16.9417 6.06628 16.4117 5.2269 15.8627 4.50197C15.3327 3.75797 14.7838 3.12843 14.2159 2.61336C13.648 2.09828 13.0802 1.69766 12.5123 1.41151C11.9444 1.12536 11.3955 0.953665 10.9223 0.839203C10.4491 0.743818 10.0516 0.667511 9.78655 0.648434C9.52155 0.629357 9.37012 0.61028 9.37012 0.61028C9.37012 0.61028 9.50262 0.553049 9.76762 0.438588C10.0326 0.343203 10.4112 0.190588 10.9412 0.095203C11.4712 -0.000181605 12.1337 -0.0574124 12.9098 0.0379722C13.6859 0.11428 14.5566 0.381357 15.4274 0.820126C16.2981 1.2589 17.1499 1.88843 17.926 2.61336C18.721 3.33828 19.4592 4.15859 20.1596 5.03613C20.5192 5.4749 20.86 5.91366 21.1818 6.37151C21.5225 6.82936 21.8443 7.26813 22.185 7.74505C22.8475 8.66074 23.4911 9.57643 24.1347 10.454C24.7782 11.3315 25.4408 12.19 26.1222 12.9531C26.4629 13.3346 26.8226 13.7161 27.1633 14.0595C27.5229 14.4029 27.8826 14.7272 28.2422 15.0324C28.9805 15.6429 29.7376 16.1389 30.5137 16.5395C31.2898 16.9401 32.0848 17.2454 32.842 17.4743C33.5991 17.7032 34.3373 17.8558 34.9998 17.9512C35.3406 18.0084 35.6434 18.0275 35.9463 18.0847C36.2492 18.1038 36.5142 18.142 36.7602 18.1611C37.0063 18.1801 37.2335 18.1992 37.4227 18.2183C37.612 18.2374 37.7824 18.2374 37.9338 18.2374C38.2367 18.2564 38.3881 18.2564 38.3881 18.2564Z" fill="#171FE5"/>
<path d="M35.5301 18.657C35.3408 18.6379 35.1326 18.6188 34.9433 18.5807C34.2051 18.4853 33.4479 18.3136 32.6908 18.0847C31.8201 17.8367 31.0061 17.4933 30.249 17.1117C29.3972 16.6539 28.6021 16.1197 27.8639 15.5284C27.5232 15.2613 27.1825 14.937 26.7282 14.5173C26.3685 14.1548 26.0089 13.7733 25.6682 13.4108L25.6492 13.3917C25.0246 12.6859 24.381 11.8656 23.6238 10.8354C23.1885 10.244 22.772 9.65266 22.3367 9.0422C22.1095 8.73697 21.9013 8.41266 21.6742 8.10743C21.3145 7.61143 20.9927 7.15358 20.6899 6.75297L20.6141 6.65758C20.2924 6.23789 19.9895 5.83727 19.6677 5.43666C18.9105 4.50189 18.2102 3.73881 17.4909 3.0902C16.7148 2.38435 15.9198 1.81204 15.1248 1.39235C14.3487 0.991734 13.5537 0.743734 12.8154 0.667426C12.6072 0.648349 12.4179 0.629272 12.2097 0.629272C12.399 0.70558 12.5883 0.781888 12.7776 0.877273C13.4022 1.1825 14.0269 1.62127 14.6326 2.1745C14.6894 2.21266 14.7273 2.26989 14.784 2.32712C15.0869 2.55604 15.3898 2.80404 15.6926 3.0902C16.393 3.73881 17.1123 4.50189 17.8695 5.43666C18.1912 5.83727 18.4941 6.23789 18.8159 6.65758L18.8916 6.75297C19.1945 7.15358 19.5163 7.59235 19.8759 8.10743C20.1031 8.43174 20.3302 8.73697 20.5384 9.0422C20.9738 9.65266 21.3902 10.244 21.8256 10.8354C22.5828 11.8656 23.2263 12.6668 23.851 13.3917L23.8699 13.4108C24.2106 13.7733 24.5703 14.1739 24.9299 14.5173C25.3842 14.937 25.725 15.2613 26.0657 15.5284C26.785 16.1197 27.5989 16.6539 28.4507 17.1117C29.2079 17.5124 30.0218 17.8367 30.8925 18.0847C31.6497 18.3136 32.4069 18.4853 33.1451 18.5807C33.3344 18.6188 33.5237 18.6379 33.7319 18.657C33.5426 18.6951 33.3533 18.7524 33.164 18.7905C32.7476 18.8668 32.3311 18.924 31.8768 18.9622C32.104 18.9813 32.3311 19.0004 32.5583 19.0004H32.7476C33.5237 19.0004 34.2619 18.924 34.9433 18.7905C35.1515 18.7524 35.3408 18.6951 35.5301 18.657Z" fill="#171FE5"/>
<path d="M38.388 21.4039H19.3645L14.1212 6.75287C13.8373 5.95163 13.0801 5.41748 12.2472 5.41748H2.61242C1.51454 5.41748 0.605957 6.3141 0.605957 7.43963C0.605957 7.68763 0.643815 7.91656 0.738459 8.14548C1.07918 7.85933 1.51454 7.70671 1.98777 7.70671H11.6036C12.4365 7.70671 13.1937 8.24087 13.4776 9.0421L18.6831 23.5978C19.232 23.3498 19.8377 23.2162 20.4624 23.2162C21.2006 23.2162 21.882 23.3879 22.4878 23.7122H32.9744C33.5801 23.407 34.2805 23.2162 34.9998 23.2162C35.738 23.2162 36.4194 23.3879 37.0252 23.7122H37.7255C38.5773 23.7122 39.3156 24.2655 39.5995 25.0095C40.0538 24.647 40.3377 24.0747 40.3377 23.4452C40.3945 22.3196 39.4859 21.4039 38.388 21.4039Z" fill="#171FE5"/>
</g>
<defs>
<linearGradient id="paint0_linear_1_111" x1="18.1664" y1="27.537" x2="23.1869" y2="27.537" gradientUnits="userSpaceOnUse">
<stop stop-color="white" stop-opacity="0.4"/>
<stop offset="1" stop-color="white" stop-opacity="0"/>
</linearGradient>
<linearGradient id="paint1_linear_1_111" x1="32.721" y1="27.5444" x2="37.7314" y2="27.5444" gradientUnits="userSpaceOnUse">
<stop stop-color="white" stop-opacity="0.4"/>
<stop offset="1" stop-color="white" stop-opacity="0"/>
</linearGradient>
<clipPath id="clip0_1_111">
<rect width="41" height="31" fill="white"/>
</clipPath>
</defs>
</svg>
