<svg width="41" height="31" viewBox="0 0 41 31" fill="none" xmlns="http://www.w3.org/2000/svg">
<g clip-path="url(#clip0_1_164)">
<path d="M20.4994 24.4373C18.7958 24.4373 17.3951 25.7536 17.2247 27.4133V27.4323C17.2247 27.5277 17.2058 27.6231 17.2058 27.7185C17.2247 29.5308 18.7012 30.9997 20.4994 30.9997C22.3166 30.9997 23.7741 29.5308 23.7931 27.7185C23.7741 25.9062 22.3166 24.4373 20.4994 24.4373Z" fill="white"/>
<path d="M35.0375 24.4373C33.8261 24.4373 32.766 25.1049 32.1982 26.0779C31.9332 26.5548 31.7817 27.108 31.7817 27.6803C31.7817 29.5117 33.2582 30.9997 35.0754 30.9997C36.2111 30.9997 37.2143 30.4274 37.8011 29.5308C38.1229 29.0157 38.3311 28.4053 38.3311 27.7376C38.3501 25.9253 36.8736 24.4373 35.0375 24.4373Z" fill="white"/>
<path d="M20.5004 25.0479C19.4971 25.0479 18.6264 25.6011 18.1721 26.4214C18.5696 26.1925 19.0239 26.0589 19.5161 26.0589C20.9736 26.0589 22.185 27.2608 22.204 28.7297C22.204 29.2066 22.0715 29.6454 21.8443 30.0269C22.6393 29.5691 23.1883 28.7106 23.1883 27.7186C23.1693 26.2497 21.9579 25.0479 20.5004 25.0479Z" fill="white"/>
<path d="M35.0375 25.0479C34.091 25.0479 33.2014 25.5629 32.7282 26.3642C32.7282 26.3832 32.7092 26.3832 32.7092 26.4023C33.1067 26.1734 33.561 26.0399 34.0343 26.0399C35.5107 26.0399 36.7222 27.2608 36.7222 28.7488C36.7222 29.1875 36.6086 29.6263 36.4004 30.0269C36.76 29.8171 37.0629 29.55 37.3089 29.2066C37.5929 28.7679 37.7254 28.2719 37.7254 27.7568C37.7254 26.2688 36.5329 25.0479 35.0375 25.0479Z" fill="white"/>
<path d="M38.3878 20.7936H19.7996L14.6888 6.54313C14.3102 5.4939 13.3259 4.80713 12.2281 4.80713H2.61219C1.17359 4.80713 0 5.97082 0 7.43974C0 8.90867 1.17359 10.0724 2.61219 10.0724H10.4109L15.5217 24.3228C15.711 24.857 16.0706 25.2957 16.5249 25.601C17.2821 24.1702 18.7964 23.1973 20.5189 23.1973C22.4118 23.1973 24.0397 24.3801 24.7211 26.0588H30.873C31.5355 24.3801 33.1634 23.1973 35.0752 23.1973C36.9303 23.1973 38.5203 24.3228 39.2207 25.9253C40.2618 25.5819 41.0379 24.5899 41.0379 23.4262C41 21.9764 39.8264 20.7936 38.3878 20.7936Z" fill="white"/>
<path d="M38.3881 18.2565C38.3881 18.2565 38.2556 18.3328 38.0095 18.4473C37.7635 18.5617 37.3849 18.7334 36.8927 18.9051C36.6467 19.0005 36.3627 19.0768 36.0599 19.1722C35.757 19.2485 35.4163 19.3439 35.0566 19.4011C34.3373 19.5537 33.4855 19.63 32.558 19.611C31.6305 19.5919 30.5894 19.4583 29.5294 19.1531C28.4694 18.8479 27.3904 18.371 26.3683 17.7223C25.3461 17.0928 24.3807 16.3106 23.5289 15.4331C22.6582 14.5747 21.8821 13.6208 21.1628 12.667C20.4435 11.694 19.7999 10.7211 19.1942 9.74819C18.8914 9.27126 18.5885 8.79434 18.3235 8.31742C18.0396 7.85957 17.7556 7.40173 17.4906 6.94388C16.9417 6.06634 16.4117 5.22696 15.8627 4.50203C15.3327 3.75803 14.7838 3.12849 14.2159 2.61342C13.648 2.09834 13.0802 1.69773 12.5123 1.41157C11.9444 1.12542 11.3955 0.953726 10.9223 0.839264C10.4491 0.743879 10.0516 0.667572 9.78655 0.648495C9.52155 0.629418 9.37012 0.610341 9.37012 0.610341C9.37012 0.610341 9.50262 0.55311 9.76762 0.438649C10.0326 0.343264 10.4112 0.190649 10.9412 0.095264C11.4712 -0.00012057 12.1337 -0.0573513 12.9098 0.0380333C13.6859 0.114341 14.5566 0.381418 15.4274 0.820187C16.2981 1.25896 17.1499 1.88849 17.926 2.61342C18.721 3.33834 19.4592 4.15865 20.1596 5.03619C20.5192 5.47496 20.86 5.91373 21.1818 6.37157C21.5225 6.82942 21.8443 7.26819 22.185 7.74511C22.8475 8.6608 23.4911 9.5765 24.1347 10.454C24.7782 11.3316 25.4408 12.19 26.1222 12.9531C26.4629 13.3347 26.8226 13.7162 27.1633 14.0596C27.5229 14.403 27.8826 14.7273 28.2422 15.0325C28.9805 15.643 29.7376 16.139 30.5137 16.5396C31.2898 16.9402 32.0848 17.2454 32.842 17.4743C33.5991 17.7033 34.3373 17.8559 34.9998 17.9513C35.3406 18.0085 35.6434 18.0276 35.9463 18.0848C36.2492 18.1039 36.5142 18.142 36.7602 18.1611C37.0063 18.1802 37.2335 18.1993 37.4227 18.2183C37.612 18.2374 37.7824 18.2374 37.9338 18.2374C38.2367 18.2565 38.3881 18.2565 38.3881 18.2565Z" fill="white"/>
<path d="M35.5301 18.6571C35.3408 18.638 35.1326 18.6189 34.9433 18.5808C34.2051 18.4854 33.4479 18.3137 32.6908 18.0848C31.8201 17.8368 31.0061 17.4934 30.249 17.1119C29.3972 16.654 28.6021 16.1199 27.8639 15.5285C27.5232 15.2614 27.1825 14.9371 26.7282 14.5174C26.3685 14.1549 26.0089 13.7734 25.6682 13.4109L25.6492 13.3919C25.0246 12.686 24.381 11.8657 23.6238 10.8356C23.1885 10.2442 22.772 9.65278 22.3367 9.04232C22.1095 8.73709 21.9013 8.41278 21.6742 8.10755C21.3145 7.61155 20.9927 7.1537 20.6899 6.75309L20.6141 6.6577C20.2924 6.23801 19.9895 5.8374 19.6677 5.43678C18.9105 4.50201 18.2102 3.73893 17.4909 3.09032C16.7148 2.38447 15.9198 1.81216 15.1248 1.39247C14.3487 0.991856 13.5537 0.743856 12.8154 0.667548C12.6072 0.648471 12.4179 0.629395 12.2097 0.629395C12.399 0.705702 12.5883 0.78201 12.7776 0.877395C13.4022 1.18263 14.0269 1.62139 14.6326 2.17463C14.6894 2.21278 14.7273 2.27001 14.784 2.32724C15.0869 2.55616 15.3898 2.80416 15.6926 3.09032C16.393 3.73893 17.1123 4.50201 17.8695 5.43678C18.1912 5.8374 18.4941 6.23801 18.8159 6.6577L18.8916 6.75309C19.1945 7.1537 19.5163 7.59247 19.8759 8.10755C20.1031 8.43186 20.3302 8.73709 20.5384 9.04232C20.9738 9.65278 21.3902 10.2442 21.8256 10.8356C22.5828 11.8657 23.2263 12.6669 23.851 13.3919L23.8699 13.4109C24.2106 13.7734 24.5703 14.174 24.9299 14.5174C25.3842 14.9371 25.725 15.2614 26.0657 15.5285C26.785 16.1199 27.5989 16.654 28.4507 17.1119C29.2079 17.5125 30.0218 17.8368 30.8925 18.0848C31.6497 18.3137 32.4069 18.4854 33.1451 18.5808C33.3344 18.6189 33.5237 18.638 33.7319 18.6571C33.5426 18.6952 33.3533 18.7525 33.164 18.7906C32.7476 18.8669 32.3311 18.9242 31.8768 18.9623C32.104 18.9814 32.3311 19.0005 32.5583 19.0005H32.7476C33.5237 19.0005 34.2619 18.9242 34.9433 18.7906C35.1515 18.7525 35.3408 18.6952 35.5301 18.6571Z" fill="white"/>
<path d="M38.388 20.986H19.3645L14.1212 6.3349C13.8373 5.53367 13.0801 4.99951 12.2472 4.99951H2.61242C1.51454 4.99951 0.605957 5.89613 0.605957 7.02167C0.605957 7.26967 0.643815 7.49859 0.738459 7.72751C1.07918 7.44136 1.51454 7.28874 1.98777 7.28874H11.6036C12.4365 7.28874 13.1937 7.8229 13.4776 8.62413L18.6831 23.1798C19.232 22.9318 19.8377 22.7983 20.4624 22.7983C21.2006 22.7983 21.882 22.97 22.4878 23.2943H32.9744C33.5801 22.989 34.2805 22.7983 34.9998 22.7983C35.738 22.7983 36.4194 22.97 37.0252 23.2943H37.7255C38.5773 23.2943 39.3156 23.8475 39.5995 24.5915C40.0538 24.229 40.3377 23.6567 40.3377 23.0272C40.3945 21.9017 39.4859 20.986 38.388 20.986Z" fill="white"/>
</g>
<defs>
<clipPath id="clip0_1_164">
<rect width="41" height="31" fill="white"/>
</clipPath>
</defs>
</svg>
