<svg width="30" height="30" viewBox="0 0 30 30" fill="none" xmlns="http://www.w3.org/2000/svg">
<rect opacity="0.1" width="30" height="30" rx="15" fill="white"/>
<path d="M21 11.2793C20.5538 11.475 20.0782 11.6047 19.5825 11.6677C20.0925 11.3632 20.4818 10.8847 20.6648 10.308C20.1892 10.5915 19.6642 10.7918 19.1047 10.9035C18.6532 10.4228 18.0097 10.125 17.3077 10.125C15.9457 10.125 14.8492 11.2305 14.8492 12.5858C14.8492 12.7808 14.8657 12.9682 14.9062 13.1467C12.861 13.047 11.0512 12.0668 9.8355 10.5735C9.62325 10.9418 9.49875 11.3633 9.49875 11.817C9.49875 12.669 9.9375 13.4242 10.5915 13.8615C10.1962 13.854 9.8085 13.7392 9.48 13.5585C9.48 13.566 9.48 13.5757 9.48 13.5855C9.48 14.781 10.3327 15.774 11.451 16.0027C11.2507 16.0575 11.0325 16.0837 10.806 16.0837C10.6485 16.0837 10.4895 16.0747 10.3403 16.0417C10.659 17.016 11.5635 17.7322 12.639 17.7555C11.802 18.4102 10.7393 18.8048 9.58875 18.8048C9.387 18.8048 9.1935 18.7957 9 18.771C10.0897 19.4738 11.3813 19.875 12.774 19.875C17.301 19.875 19.776 16.125 19.776 12.8745C19.776 12.7657 19.7723 12.6608 19.767 12.5565C20.2552 12.21 20.6655 11.7773 21 11.2793Z" fill="white"/>
</svg>
