<svg width="30" height="30" viewBox="0 0 30 30" fill="none" xmlns="http://www.w3.org/2000/svg">
<rect opacity="0.1" width="30" height="30" rx="15" fill="white"/>
<path d="M20.0257 20.3686V20.3681H20.0284V16.1986C20.0284 14.1589 19.6025 12.5876 17.2893 12.5876C16.1773 12.5876 15.4311 13.2167 15.1265 13.8131H15.0943V12.7781H12.9011V20.3681H15.1848V16.6098C15.1848 15.6202 15.3668 14.6634 16.5555 14.6634C17.7268 14.6634 17.7442 15.7927 17.7442 16.6733V20.3686H20.0257Z" fill="white"/>
<path d="M9.18311 12.7788H11.4696V20.3685H9.18311V12.7788Z" fill="white"/>
<path d="M10.3243 9C9.59322 9 9 9.61162 9 10.3654C9 11.1191 9.59322 11.7435 10.3243 11.7435C11.0553 11.7435 11.6486 11.1191 11.6486 10.3654C11.6481 9.61162 11.0549 9 10.3243 9V9Z" fill="white"/>
</svg>
