<svg width="30" height="30" viewBox="0 0 30 30" fill="none" xmlns="http://www.w3.org/2000/svg">
<rect opacity="0.1" width="30" height="30" rx="15" fill="white"/>
<g clip-path="url(#clip0_1_154)">
<path d="M18.3333 10H11.6667C11.2246 10 10.8007 10.1756 10.4882 10.4882C10.1756 10.8007 10 11.2246 10 11.6667V18.3333C10 18.7754 10.1756 19.1993 10.4882 19.5118C10.8007 19.8244 11.2246 20 11.6667 20H18.3333C18.7754 20 19.1993 19.8244 19.5118 19.5118C19.8244 19.1993 20 18.7754 20 18.3333V11.6667C20 11.2246 19.8244 10.8007 19.5118 10.4882C19.1993 10.1756 18.7754 10 18.3333 10V10ZM19.1667 18.3333C19.1667 18.5543 19.0789 18.7663 18.9226 18.9226C18.7663 19.0789 18.5543 19.1667 18.3333 19.1667H11.6667C11.4457 19.1667 11.2337 19.0789 11.0774 18.9226C10.9211 18.7663 10.8333 18.5543 10.8333 18.3333V11.6667C10.8333 11.4457 10.9211 11.2337 11.0774 11.0774C11.2337 10.9211 11.4457 10.8333 11.6667 10.8333H18.3333C18.5543 10.8333 18.7663 10.9211 18.9226 11.0774C19.0789 11.2337 19.1667 11.4457 19.1667 11.6667V18.3333Z" fill="white"/>
<path d="M15 12.5C14.5055 12.5 14.0222 12.6466 13.6111 12.9213C13.2 13.196 12.8795 13.5865 12.6903 14.0433C12.5011 14.5001 12.4516 15.0028 12.548 15.4877C12.6445 15.9727 12.8826 16.4181 13.2322 16.7678C13.5819 17.1174 14.0273 17.3555 14.5123 17.452C14.9972 17.5484 15.4999 17.4989 15.9567 17.3097C16.4135 17.1205 16.804 16.8 17.0787 16.3889C17.3534 15.9778 17.5 15.4945 17.5 15C17.5 14.337 17.2366 13.7011 16.7678 13.2322C16.2989 12.7634 15.663 12.5 15 12.5ZM15 16.6667C14.6704 16.6667 14.3481 16.5689 14.0741 16.3858C13.8 16.2026 13.5863 15.9423 13.4602 15.6378C13.3341 15.3333 13.3011 14.9982 13.3654 14.6748C13.4297 14.3515 13.5884 14.0546 13.8215 13.8215C14.0546 13.5884 14.3515 13.4297 14.6749 13.3654C14.9982 13.301 15.3333 13.3341 15.6378 13.4602C15.9424 13.5863 16.2026 13.8 16.3858 14.074C16.5689 14.3481 16.6667 14.6704 16.6667 15C16.6667 15.442 16.4911 15.866 16.1785 16.1785C15.866 16.4911 15.442 16.6667 15 16.6667Z" fill="white"/>
<path d="M17.7083 12.9167C18.0534 12.9167 18.3333 12.6369 18.3333 12.2917C18.3333 11.9466 18.0534 11.6667 17.7083 11.6667C17.3631 11.6667 17.0833 11.9466 17.0833 12.2917C17.0833 12.6369 17.3631 12.9167 17.7083 12.9167Z" fill="white"/>
</g>
<defs>
<clipPath id="clip0_1_154">
<rect width="10" height="10" fill="white" transform="translate(10 10)"/>
</clipPath>
</defs>
</svg>
